Coordinates
version=1
nRows=6
nColumns=36
inDegrees=yes

Units are S.I. units (second, meters, Newtons, ...)
If the header above contains a line with 'inDegrees', this indicates whether rotational values are in degrees (yes) or radians (no).

endheader
time	pelvis_tilt	pelvis_list	pelvis_rotation	pelvis_tx	pelvis_ty	pelvis_tz	hip_flexion_r	hip_adduction_r	hip_rotation_r	knee_angle_r	knee_angle_r_beta	ankle_angle_r	subtalar_angle_r	mtp_angle_r	hip_flexion_l	hip_adduction_l	hip_rotation_l	knee_angle_l	knee_angle_l_beta	ankle_angle_l	subtalar_angle_l	mtp_angle_l	lumbar_extension	lumbar_bending	lumbar_rotation	arm_flex_r	arm_add_r	arm_rot_r	elbow_flex_r	pro_sup_r	arm_flex_l	arm_add_l	arm_rot_l	elbow_flex_l	pro_sup_l
     22.03333330	      6.36743010	     -4.33850598	     -0.87716186	      0.51475886	      1.04047922	      0.75002359	    -14.94244703	      5.50129403	      2.38497899	      6.14818290	      0.10730603	     12.39003149	     -2.85924995	     -7.49999987	     17.18130001	     -5.56719634	      0.10652034	     12.51240398	      0.21838265	      6.11337151	     -6.43592231	     -7.49999987	    -22.32348155	      4.09649397	      3.64934656	     12.59248449	    -23.15367990	      5.62115618	     47.81187315	     89.52199310	      0.65213093	     -9.62867995	     12.59782785	     19.90600189	     96.34167000
     22.05000000	      5.76944414	     -4.65663976	     -0.92459349	      0.51397952	      1.03541247	      0.74860214	    -15.04641464	      5.57609298	      1.87096681	      6.18576534	      0.10796197	     13.50055193	     -1.90316625	     -7.49999987	     17.65117179	     -5.94708981	      0.63519633	      7.80022303	      0.13613957	      5.98119559	     -4.68824183	     -7.49999987	    -21.83578396	      4.27228263	      3.84790884	     12.28218396	    -23.28204469	      5.48273892	     48.37374544	     88.42473709	      0.37592209	     -9.39834281	     12.45965923	     20.00535347	     95.59374594
     22.06666670	      5.07877342	     -4.95730222	     -1.09391223	      0.51237058	      1.03089682	      0.74709763	    -14.86273440	      5.62538597	      1.51766428	      6.43716599	      0.11234974	     14.66740453	     -1.00017730	     -7.49999987	     18.41152134	     -6.30641629	      0.99390915	      4.50514467	      0.07862961	      5.80131406	     -2.95520103	     -7.49999987	    -21.12900947	      4.38751994	      4.23115479	     11.94880823	    -23.43760552	      5.50605584	     48.61192100	     87.61612299	      0.45989884	     -9.16557770	     12.72446181	     19.33330865	     95.15522397
     22.08333330	      4.49325560	     -5.14726465	     -1.27133487	      0.51171362	      1.02755000	      0.74588715	    -14.63974950	      5.58056132	      1.26598286	      6.91995930	      0.12077607	     15.83176918	     -0.34740054	     -7.49999987	     19.22301737	     -6.48444542	      1.21292912	      2.75281968	      0.04804577	      5.42447997	     -1.55644072	     -7.49999987	    -20.48498830	      4.37788537	      4.49141926	     11.74952758	    -23.47677087	      5.61335222	     48.79166759	     86.86184388	      0.50533446	     -9.08250494	     13.11302225	     18.73744519	     94.47454305
     22.10000000	      4.03546276	     -5.15695932	     -1.47885619	      0.51325801	      1.02493096	      0.74471709	    -14.41334291	      5.33613252	      1.18493566	      7.73312750	      0.13496854	     16.92452081	     -0.08393469	     -7.49999987	     19.89269631	     -6.41923207	      1.29290922	      2.43377747	      0.04247743	      4.59847865	     -0.95734003	     -7.49999987	    -19.87317719	      4.11172377	      5.01586572	     11.10852054	    -23.29288997	      4.47979877	     49.15086972	     88.78650227	      0.74794427	     -9.06142847	     13.01596245	     18.01435800	     96.23509076
     22.11666670	      3.75856998	     -4.96236787	     -1.68986716	      0.51670109	      1.02359139	      0.74272036	    -14.20157226	      4.81539377	      1.16158721	      9.02095656	      0.15744539	     17.83264031	     -0.13017608	     -7.49999987	     20.25931158	     -6.08529881	      1.21972708	      3.33628685	      0.05822919	      3.28949958	     -1.05853575	     -7.49999987	    -19.22657868	      3.63240803	      5.06038447	     11.16647694	    -23.10625814	      5.35524381	     48.50843809	     86.40363953	      0.83605695	     -9.16854943	     13.98703519	     17.00890880	     93.87284490
